<svg width="63" height="13" viewBox="0 0 63 13" fill="none" xmlns="http://www.w3.org/2000/svg">
<g opacity="0.7">
<mask id="mask0_8583_4512" style="mask-type:luminance" maskUnits="userSpaceOnUse" x="0" y="0" width="64" height="13">
<path d="M63.0044 0.128906H0V12.1618H63.0044V0.128906Z" fill="white"/>
</mask>
<g mask="url(#mask0_8583_4512)">
<path d="M47.2979 2.20567C47.8739 2.20567 48.3409 1.73858 48.3409 1.1624C48.3409 0.586225 47.8739 0.119141 47.2979 0.119141C46.7218 0.119141 46.2549 0.586225 46.2549 1.1624C46.2549 1.73858 46.7218 2.20567 47.2979 2.20567Z" fill="white"/>
<path d="M5.49776 1.01172C4.34869 1.01172 3.66809 1.7367 3.36756 2.22297C3.19962 2.49704 3.04052 3.03636 2.8549 3.93816C2.72231 4.57473 2.4483 5.22898 2.16546 5.57379C1.89145 5.90092 1.30807 6.31645 0.901478 6.46676C0.583274 6.59053 0.0264177 6.58169 0.0264177 6.58169L0.0175781 12.1605C0.424172 12.1605 1.36111 11.8069 1.87377 11.3206C2.21849 10.9935 2.4925 10.4365 2.58973 9.83526C2.78419 8.73895 2.93445 8.25268 3.24381 7.80178C3.82719 6.91766 4.7376 6.57285 5.58615 6.57285L5.55079 4.37139C5.52428 3.17782 5.49776 1.03824 5.49776 1.01172Z" fill="white"/>
<path d="M16.6438 1.01172C15.4947 1.01172 14.8141 1.7367 14.5136 2.22297C14.3456 2.49704 14.1865 3.03636 14.0009 3.93816C13.8683 4.57473 13.5943 5.22898 13.3115 5.57379C13.0374 5.90092 12.4541 6.31645 12.0475 6.46676C11.7293 6.59053 11.1724 6.58169 11.1724 6.58169L11.1636 12.1605C11.5702 12.1605 12.5071 11.8069 13.0198 11.3206C13.3645 10.9935 13.6385 10.4365 13.7357 9.83526C13.9302 8.73895 14.0804 8.25268 14.3898 7.80178C14.9732 6.91766 15.8836 6.57285 16.7321 6.57285L16.6968 4.37139C16.6703 3.17782 16.6438 1.03824 16.6438 1.01172Z" fill="white"/>
<path d="M11.0666 1.01172C9.91754 1.01172 9.23693 1.7367 8.93641 2.22297C8.76847 2.49704 8.60936 3.03636 8.42375 3.93816C8.29116 4.57473 8.01715 5.22898 7.7343 5.57379C7.46029 5.90092 6.87692 6.31645 6.47033 6.46676C6.15212 6.59053 5.59527 6.58169 5.59527 6.58169L5.58643 12.1605C5.99302 12.1605 6.92995 11.8069 7.44262 11.3206C7.78734 10.9935 8.06135 10.4365 8.15858 9.83526C8.35303 8.73895 8.5033 8.25268 8.81266 7.80178C9.39603 6.91766 10.3065 6.57285 11.155 6.57285L11.1196 4.37139C11.0931 3.17782 11.0666 1.03824 11.0666 1.01172Z" fill="white"/>
<path d="M41.2428 1.66698C41.2428 2.39196 41.1986 2.53342 40.9334 2.73677C40.8097 2.82518 40.6594 2.86939 40.3501 2.87823L39.9258 2.90475L39.9346 4.54038H41.2516V7.98846C41.2516 9.27928 42.0737 10.2341 43.594 10.2872L45.1231 10.3049V9.38537L45.1319 8.46589C45.1319 8.46589 43.9652 8.43936 43.6912 8.43936C43.3376 8.43936 43.1697 8.22717 43.1697 7.87352C43.1697 4.50502 43.1697 4.54038 43.1697 4.54038L45.4855 4.55806V2.89591L44.3276 2.88707L43.1697 2.86939V1.02157H41.2605C41.2428 1.01273 41.2428 1.66698 41.2428 1.66698Z" fill="white"/>
<path d="M24.5283 2.73575C23.556 2.73575 22.6544 3.46957 22.2832 3.91163V2.89489H20.4977L20.4712 10.2862H22.4158C22.4158 10.2862 22.4069 5.07868 22.4158 5.06983C22.787 4.6985 23.503 4.53936 23.9272 4.53936C24.4753 4.53936 24.9172 4.91069 24.9084 5.45885C24.8995 5.72408 24.9084 10.2862 24.9084 10.2862H26.8706C26.8706 10.2862 26.8264 5.09636 26.8441 5.06983C27.1358 4.77807 27.5777 4.53936 28.3644 4.53936C28.9036 4.53936 29.3367 4.96374 29.3367 5.42348C29.3367 5.65336 29.3367 10.2862 29.3367 10.2862H31.2813L31.2371 5.45001C31.2371 4.76923 31.2194 4.48631 30.9101 3.87627C30.6714 3.40768 30.0615 2.95678 29.4251 2.7888C29.0892 2.70038 28.4705 2.70923 28.1258 2.81532C27.6838 2.94794 27.2065 3.22202 26.906 3.5403C26.7557 3.6906 26.5347 3.92931 26.5171 3.90279C26.1812 3.38116 25.5006 2.73575 24.5283 2.73575Z" fill="white"/>
<path d="M34.8171 2.89594C34.1454 3.06393 33.7034 3.32916 33.1731 3.86848C32.6251 4.40779 32.4129 4.79681 32.2008 5.59252C31.971 6.47664 32.1124 7.72325 32.5367 8.54549C32.8018 9.05828 33.2615 9.58875 34.0481 9.96892C35.595 10.7116 37.4335 10.4464 38.5737 9.31467C39.3515 8.54549 39.6786 7.72325 39.6786 6.56505C39.6786 4.96479 38.9449 3.70933 37.681 3.15234C36.8324 2.77216 35.701 2.67491 34.8171 2.89594ZM36.6998 4.54041C37.3186 4.81449 37.6721 5.55715 37.6721 6.55621C37.6721 8.14763 36.7529 8.97871 35.3298 8.6781C35.1353 8.6339 34.7376 8.35098 34.5431 8.11227C33.9244 7.34308 33.9774 5.58367 34.6315 4.87638C35.0646 4.39895 36.0369 4.24865 36.6998 4.54041Z" fill="white"/>
<path d="M56.6755 2.88674C56.6579 2.8779 54.4569 2.88674 54.4569 2.88674C54.4569 2.88674 52.8306 8.3241 52.8129 8.33294C52.7422 8.07654 51.1777 2.89558 51.1777 2.89558L48.9414 2.88674L51.8229 10.278H53.7675C54.015 9.65912 56.6932 2.89558 56.6755 2.88674Z" fill="white"/>
<path d="M48.2608 2.88477H46.3516V10.276H48.2608V2.88477Z" fill="white"/>
<path d="M59.8311 2.88477C58.3019 2.88477 57.4976 3.52133 57.144 4.08717C56.9937 4.33473 56.7286 5.0155 56.7286 5.1658C56.7286 5.19233 57.0556 5.25421 57.4534 5.3161C57.8423 5.37799 58.2135 5.43104 58.2666 5.44872C58.3373 5.4664 58.3815 5.4222 58.3991 5.3161C58.4433 5.1658 58.6908 4.73258 58.8146 4.6088C59.1063 4.3082 59.8222 4.20211 60.4321 4.35241C60.9006 4.47619 61.1304 4.79447 61.1304 5.34263V5.54598C61.1304 5.54598 59.5305 5.89962 59.2389 5.97035C58.8234 6.07645 58.2754 6.22675 57.8688 6.42126C57.4534 6.6246 57.2236 6.77491 56.9672 7.02246C56.543 7.45568 56.4015 7.80049 56.4457 8.41053C56.4457 9.44496 57.5506 10.3733 59.0356 10.3556C59.8487 10.3468 60.9006 9.65715 61.2276 9.3477C61.2188 9.35654 61.2365 10.2583 61.2365 10.2583H62.9954V7.80933C62.9954 6.46546 62.9954 5.35147 62.9954 5.04202C62.9954 4.42314 62.4474 3.53902 61.864 3.22073C61.6254 3.08812 61.4663 3.05275 61.3779 3.01738C60.989 2.92013 60.7503 2.88477 59.8311 2.88477ZM61.1392 6.79259C61.1304 6.81911 61.1304 8.02152 61.1304 8.02152L60.8829 8.19834C60.1581 8.71998 59.5482 8.90564 58.9206 8.79071C58.6378 8.73766 58.3903 8.50779 58.3373 8.26023C58.2842 7.98616 58.5582 7.65019 59.0267 7.42916C59.4863 7.19044 60.9448 6.80143 61.1392 6.79259Z" fill="white"/>
</g>
</g>
</svg>
